<svg version="1.2" xmlns="http://www.w3.org/2000/svg" viewBox="0 0 1292 829" width="1292" height="829"><style>.a{fill:#d6f5ff}.b{fill:#65bfce}.c{fill:#91d3e2}.d{fill:#05a}.e{fill:#1a78c6}.f{fill:#b56167}.g{fill:#f0edf2}.h{fill:#39657d}.i{fill:#f4b3bd}.j{fill:#fff}.k{opacity:.5;mix-blend-mode:multiply;fill:#f7bfc5}.l{opacity:.5;mix-blend-mode:multiply;fill:#05a}.m{fill:#dd4c38}.n{fill:#df9296}.o{fill:#cd4438}.p{mix-blend-mode:multiply;fill:#dd4c38}.q{fill:#f7bfc5}.r{fill:#482320}.s{fill:#e4dfe8}.t{fill:#b1a9b9}.u{fill:#75decb}.v{fill:#ffb0c9}.w{fill:#091143}</style><path class="a" d="m1249.2 805.5c8.4-16 28.9-63.1 40.4-160 14.7-124.2-52.3-205.8-68.6-249.9-16.4-44.1 35.9-137.2-39.2-228.7-75.2-91.4-200.9-89.8-271.2-53.9-70.2 36-160 73.5-231.9 4.9-71.8-68.6-122.1-101.3-237.8-115.5-121.1-14.8-313.7 62.3-300.1 225.6 13.5 161-100.1 139.7-131.7 293.3-37.5 182.1 57.2 268.8 67.5 284.2z"/><path class="b" d="m1030.8 812h-915.1v-313.3h915.1z"/><path class="c" d="m1047 812h-18.6v-313.3h-910.3v313.3h-18.6v-332h947.5z"/><path class="c" d="m1037.7 658.1h-928.9v-18.7h928.9z"/><path class="c" d="m414.5 805.5h-18.7v-316.1h18.7z"/><path class="c" d="m750.7 805.5h-18.7v-316.1h18.7z"/><path class="d" d="m171.1 811c0 0-93.4-203.1-58.4-268.5 35-65.3 182.1-49 214.8 11.7 32.7 60.7 81.7 256.8 81.7 256.8z"/><path class="e" d="m327.5 554.2c-4.8-8.9-12.1-16.9-21.1-23.7-27.2-11-82.2-26.7-116.4 7.5-37.8 37.8 40.5 206 80.2 273h139c0 0-49-196.1-81.7-256.8z"/><path class="e" d="m1160.9 811c0 0 93.4-203.1 58.3-268.5-35-65.3-182-49-214.7 11.7-32.7 60.7-81.7 256.8-81.7 256.8z"/><path class="d" d="m1038.5 522c-15.1 8.5-27.1 19.3-34 32.2-32.7 60.7-81.7 256.8-81.7 256.8h153.9c32.2-69.4 94.7-215.3 72.4-258.7-15.8-31-66.9-34.1-110.6-30.3z"/><path class="f" d="m689.2 691.9c0 0 18.3 4 27.9 4 9.5 0 36.9-14.5 42.2-9.2 5.3 5.4-20.7 12.4-15.2 17.9 5.6 5.6 51.7 7.6 47.4 12-4.4 4.3-30.3 2.3-30.3 2.3 0 0 32.3 3.2 32.3 7.6 0 4.4-31.9 1.6-31.9 1.6 0 0 28.1 4 24.3 7.9-3.8 3.8-26.6 0-26.6 0 0 0 20.1 2.9 15.1 8-1.6 1.6-33.1 0.4-47-6-13.9-6.3-20-13.5-22.5-13.5-2.6 0-29.2-4.8-29.2-4.8z"/><path class="g" d="m512 465.2c0 0 22.1 147.3 52.9 167.9 30.9 20.5 129.4 48.5 129.4 48.5 0 0 5.9 35.2-17.7 54.4 0 0-111.7-22.1-151.3-50-39.7-27.9-86.8-197-80.9-214.6 5.9-17.6 67.6-6.2 67.6-6.2z"/><path class="h" d="m538.1 437c-0.8 0-1.3-0.1-1.4-0.1l0.9-4.3c0.2 0 2.9 0.5 6.1-2.6 6.4-6.3 15.2-28.2 2.3-103.4l4.3-0.8c12.7 73.9 4.9 99.3-3.8 107.6-3.3 3.1-6.6 3.6-8.4 3.6z"/><path class="i" d="m592.2 341.7c1.6-17.5 1.6-36.2 0.1-52.3-3.3-34-39.5-42-39.5-42 0 0-62.6-28.5-89 25.1-26.3 53.6-2.3 90.1-4.2 102.3-1.9 12.2-15 46-15 46l56.2 29.5c0 0 5-22.3 6.6-32.2 1.5-9.9 12.8-12 12.8-12 20.6 7.9 44.1 13.3 60.1-15.7 3.3-6 6-13.9 8-23 3.1-0.2 9.4-0.9 11.7-3.1 2.4-2.4-4.7-16.6-7.8-22.6z"/><path class="j" d="m582.2 376.3l-17.9-5.1c0 0 0.7 16.8 6.3 16.8 5.5 0 11.6-11.7 11.6-11.7z"/><path class="h" d="m584.7 331.5c0 3.2-2.6 5.7-5.7 5.7-3.2 0-5.7-2.5-5.7-5.7 0-3.1 2.5-5.7 5.7-5.7 3.1 0 5.7 2.6 5.7 5.7z"/><path class="h" d="m564.3 318.9c0 0 12.1-2.3 24.5 0 0 0 2.4-9.6-7.2-9.6-9.6 0-17.3 9.6-17.3 9.6z"/><path class="d" d="m596.4 235.3c12-2 23.6 4.9 27.1 16.5 2.4 8 3.9 17.1 2.6 25.7-3.6 22.9-28.1 28.3-47.7 23.9-16-3.5-29.5-15.2-29.5-15.2 0 0 0.5 22.9-11.4 31.6-11.9 8.7-7.4 19.3-12.8 18.5-5.3-0.9 3-22.4-10.7-26.1-13.5-3.7-17 21.2-8 29.1l-3.1 9.9c0 0-13.4 19.6-29.1 20.2-15.7 0.7-23.7-6.8-32.9-37.9-9.1-31.1-12.4-66.8 4.6-90.7 16.9-23.9 37.9-14.4 38.5-18.2 0.6-3.8 22.5-24 53.7-8 19.2 9.8 36.8 24.5 58.7 20.7z"/><path class="k" d="m499.4 374.9c-6.3 7.5 8 43.2 8 43.2 1.5-9.9 12.8-12 12.8-12 0 0-26-19.9-20.8-31.2z"/><path class="l" d="m625.8 279.3c-44.1 17-95.1-11.3-103.3-20.6-1.7 14-2 27.1-19.2 45.3-28.1 28.3-53.9 13.3-68.6-1 1.3 9.6 3.5 19.3 6.2 28.5 9.2 31.1 17.2 38.6 32.9 37.9 15.7-0.6 29.1-20.2 29.1-20.2l3.1-9.9c-9-7.9-5.5-32.8 8-29.1 13.7 3.7 5.4 25.2 10.7 26.1 5.4 0.8 0.9-9.8 12.8-18.5 11.9-8.7 11.4-31.6 11.4-31.6 0 0 13.5 11.7 29.5 15.2 19.1 4.3 42.9-0.8 47.4-22.1z"/><path class="h" d="m639.3 662.7c-5.2 0-10.7-0.5-16.3-1.7-75.3-15.4-86.8-203.6-87.9-224.5-23.2-8.3-25.8-99.6-26-110.2l4.4-0.1c0.6 28.6 6.1 103.4 24.1 106.4l1.7 0.3 0.1 1.8c0.1 2 9.8 206.7 84.5 222.1 54.5 11.1 85.7-37 113.2-79.4 10.4-16 20.2-31 30.3-41.1 36.2-36.3 58.9-36.8 59.8-36.8l0.1 4.3c-0.2 0-22.1 0.8-56.9 35.6-9.7 9.7-19.4 24.6-29.6 40.4-24.3 37.3-53.9 82.9-101.5 82.9z"/><path class="j" d="m516.6 326.2c0 2.9-2.4 5.3-5.3 5.3-2.9 0-5.3-2.4-5.3-5.3 0-2.9 2.4-5.3 5.3-5.3 2.9 0 5.3 2.4 5.3 5.3z"/><path class="j" d="m434.3 415.7c0 0 53.6 13.3 91.9 67.7 32.3 46 32.9 327.2 32.9 327.2l-236.3 1.2c0 0 22.6-64.8 32.2-126.3 10.6-66.9 12.3-170.2 29.5-211.2 26.2-62.6 49.8-58.6 49.8-58.6z"/><path class="g" d="m470.5 768.1c-23.6 2.2-48.4-19.3-49.4-2.1-0.6 9.3-5.5 28.2-7.1 45.4l145.1-0.8c0 0-3.3-274.8-35.6-320.8-13.1-18.7-50.2-35.5-63.8-43.6-33.1 7.2-41 6.4-54.8 31.7 0 0-11.8 20.4 30.1 84.9 42 64.5 91.4 103.2 102.2 122.6 10.7 19.3 7.5 51.6-14 56.9-21.5 5.4-87.1-66.6-82.8-46.2 4.3 20.4 53.8 69.9 30.1 72z"/><path class="g" d="m434.3 415.7c0 0 27.8 17.5 45.4 51.3 17.6 33.8 10.3 36.7 10.3 36.7l35.3 10.3-29.4 17.7 60.5 175.7c0 0-4.7-156.6-17.9-199.3-13.2-42.6-88.2-108.7-88.2-108.7z"/><path class="m" d="m668.4 744.4c0 0-4.6-0.6 4.2 14.2 8.8 14.8 19.5 21.5 22.7 19.9 3.2-1.6 9.5-11.1 3.8-22.8-5.7-11.6-30.7-11.3-30.7-11.3z"/><path class="n" d="m700.8 771.6c0 0-13.4 6.5-15.6 8.4-2.2 1.9-6.8 10.8-20 18.2-11.6 6.5-20.9 13.7-24.1 10.1-3.1-3.7 9.2-10.9 12.7-13.9 3.6-3.1 4.5-8.6 4.5-8.6 0 0-7.7-0.6-17.5 2.1-9.8 2.7-20.8 19-24.8 17.3-6.2-2.4 11-21.2 11-21.2 0 0-17.5 17.6-20.3 14.5-2.7-3.2 15.1-21.9 15.1-21.9 0 0 9.6-9.3 19.5-13.1 9.9-3.8 21.5-4.5 34.2-8.1 12.7-3.6 29-20.6 29-20.6 0 0 25 15.7 20 22.8-2.5 3.4-23.7 14-23.7 14z"/><path class="o" d="m864.1 456.6c0 0-37.9 12.2-53.5 70.8-15.7 58.5-24.8 116.8-38.2 134.8-13.5 18-104 82.2-104 82.2 0 0 13.2 4.2 22.7 15.2 9.5 11.1 4.2 18.9 4.2 18.9 0 0 106.9-42 130.7-88.2 23.9-46.1 41.2-178.2 43.1-203.7 1.9-25.6-5-30-5-30z"/><path class="p" d="m826 690.3c17.9-34.4 32-116.7 38.8-166.9-16.9 0.2-32.2 3.2-32.2 3.2 0 0-1.4 105.4-16.4 137.7-12.7 27.2-97.8 80.5-124.2 96.5 8.2 10.4 3.3 17.7 3.3 17.7 0 0 106.9-42 130.7-88.2z"/><path class="q" d="m896.9 442.1c0 0 11.9-5.7 15.6-9.5 3.8-3.7 2.1-50 2.1-50h58.9c0 0-5.3 45.2 0 50.4 5.2 5.2 10.9 4.8 10.9 4.8 0 0 11.5 33.7-27.9 48.2-39.4 14.4-66.9-10.4-66.9-26.2 0-15.8 7.3-17.7 7.3-17.7z"/><path class="k" d="m973.3 383.9c0.1-0.8 0.2-1.3 0.2-1.3h-58.9c0 0 1.1 29.6-0.4 43.3 18.3-2.6 50.4-11.5 59.1-42z"/><path class="m" d="m896.9 442.1c0 0-15.6 34.7 31.9 38.2 47.4 3.6 55.6-42.5 55.6-42.5 0 0 45.8 4.1 63.6 43.2 17.7 39.2-5.4 331-5.4 331h-253.9c0 0 37.4-95.6 37.3-153.5 0-58 4-151.6 17.4-186.4 4.9-12.5 53.5-30 53.5-30z"/><path class="p" d="m1002.3 530.6c0 0 0 67.3 0 107.9 0 40.5-50.2 49.6-46.2 62.9 4 13.4 30.3 21.7 24.7 39-5.6 17.3-66.6 17.8-66.6 52.3 0 6.3 1.9 12.8 5.2 19.3h123.2c0 0 16-203 11.1-293.1-16.9-5-34.6-2.4-51.4 11.7z"/><path class="j" d="m900.2 440.6c0 0-6.9-4-12.6 5.1-5.7 9.2-9.7 38.4 31 43 40.6 4.6 59.5-16 63.5-23.5 4.1-7.4 9.2-20.6 8.1-25.8-1.2-5.1-10.5-2.7-10.5-2.7 0 0 2.8 41-48.2 41.6-51 0.6-31.3-37.7-31.3-37.7z"/><path class="n" d="m921.2 722c0 0-25.9 3-41.9 1-16.1-1.9-19.3-3.2-39.7 3.5-20.5 6.6-57.6 30-49.7 33.5 8 3.5 32.1-12.7 32.1-12.7 0 0-27.9 19.5-25 23.2 2.9 3.7 31.5-14.9 31.5-14.9 0 0-21.4 20.7-14.8 21.5 6.6 0.9 24.1-16.2 24.1-16.2 0 0-15.9 17.3-9.7 18 6.2 0.8 20.2-14.6 20.2-14.6 0 0 20.9-0.7 27.9-6.1 6.9-5.4 11.7-7.7 16.6-7.1 5 0.6 36.9 2.8 36.9 2.8z"/><path class="m" d="m1018.5 449.2c0 0 36.1 13.2 55.9 75 20 62.6 30.9 193.8 9.3 217.4-21.6 23.5-172.1 23.9-172.1 23.9 0 0-7.1-26.8-8-46.6 0 0 124.1-17.7 130.7-24.9 6.6-7.2-35.5-155.4-37-190.7-1.6-35.3 21.2-54.1 21.2-54.1z"/><path class="p" d="m1039 463.5q0.4 2 1 4.2c0 0 30.5 144.4 34.9 196.6 4.4 52.1-1.1 67.6-51.2 76.1-35.9 6.2-89.3 5.7-116.6 4.9 2.1 11.3 4.5 20.2 4.5 20.2 0 0 150.5-0.4 172.1-23.9 21.6-23.6 10.7-154.8-9.3-217.4-9.9-31-23.9-49.7-35.4-60.7z"/><path class="m" d="m903.6 720c-0.5 0-0.9-0.4-1-0.9-0.1-0.6 0.3-1.2 0.9-1.3 1-0.1 105.7-17.7 129.1-23.9 17.4-4.7 30.5 3.8 36.4 8.9-1.8-3.7-5.6-9.2-13-13.2-3.2-1.7-4.6-3.1-4.5-4.5 0-0.4 0.2-1.3 1.5-1.8 4-1.5 16.6 1 21.6 6 0.4 0.4 0.4 1.1 0 1.5-0.4 0.5-1.1 0.5-1.5 0-4.8-4.7-17.3-6.6-19.4-5.4 0.2 0.3 1 1 3.3 2.3 13.4 7.2 15.7 18.5 15.8 19 0.1 0.5-0.2 1-0.6 1.2-0.5 0.2-1 0.1-1.3-0.3-0.2-0.2-15.1-17.6-37.8-11.6-23.4 6.2-128.2 23.8-129.3 24q-0.1 0-0.2 0z"/><path class="m" d="m1007.7 562c-0.5 0-0.9-0.3-1.1-0.8-19.4-65.6-6.6-85.7-6-86.5 0.3-0.5 1-0.7 1.5-0.3 0.5 0.3 0.6 1 0.3 1.5-0.2 0.2-12.8 20.3 6.3 84.7 0.2 0.6-0.1 1.2-0.7 1.4q-0.2 0-0.3 0z"/><path class="q" d="m869.5 275.9c0 0-18.9 62.9 2.8 114.5 12.9 30.5 37.2 25.6 59.8 19.4 24.8-6.9 54.1-29.2 67.9-67.6 13.7-38.3 14.9-80.7-28.5-98.8-43.4-18.2-91.6 4.7-102 32.5z"/><path class="r" d="m883.9 342.8c0.1 3-2.2 5.5-5.2 5.6-3 0.1-5.5-2.3-5.6-5.3-0.1-2.9 2.2-5.4 5.2-5.5 3-0.1 5.5 2.2 5.6 5.2z"/><path class="r" d="m864.3 331.5c0 0 11.3-2.6 23.1-0.7 0 0 2-9.2-7.1-8.9-9.1 0.2-16 9.6-16 9.6z"/><path class="r" d="m916.1 344.1c0.1 3 2.6 5.3 5.6 5.2 3-0.1 5.3-2.6 5.2-5.6-0.1-3-2.6-5.3-5.5-5.2-3 0.1-5.4 2.6-5.3 5.6z"/><path class="r" d="m935 331.5c0 0-11.5-1.8-23.2 0.8 0 0-2.5-9.1 6.6-9.4 9.1-0.3 16.6 8.6 16.6 8.6z"/><path class="f" d="m886.4 365.9c0 0 9.3 2.8 18.2 0 0 0-3.9 4.2-11 4.2-7.1 0-7.2-4.2-7.2-4.2z"/><path class="j" d="m888.3 378.7l26-1.3c0 0-10 16.4-18.8 12.3-8.7-4.1-7.2-11-7.2-11z"/><path class="r" d="m950.1 285.2c0 0-34.9 20.7-74.7 1.2 0 0-12.1 6.2-12.1 21.3 0 11.8-22.5-17.5-15.4-44.8 7.1-27.4 77.9-45 103-41.4 25.1 3.6 28.3 17.5 32.7 25 0 0 19.9 2 25.6 25.7 5.3 21.6 6.3 63.9-16.5 95.4-3.2 4.3-10 2.8-10.8-2.4-0.4-2.9-0.6-13.2 1.2-12.8 9.4 1.8 22.4-20.7 14.3-29.7-11.4-12.7-20.8 3.1-20.8 13.4 0 10.5-9.4-9.2-10.2-19.8-0.8-10.7-14-12-16.3-31.1z"/><path class="s" d="m859.1 469.8h-10.6v63.7h10.6c11.7 0 21.2-14.3 21.2-31.9 0-17.5-9.5-31.8-21.2-31.8z"/><path class="t" d="m869.7 501.6c0 17.6-9.5 31.9-21.2 31.9-11.8 0-21.3-14.3-21.3-31.9 0-17.5 9.5-31.8 21.3-31.8 11.7 0 21.2 14.3 21.2 31.8z"/><path class="s" d="m844.1 480.7h-14v41.9h14c7.7 0 14-9.4 14-21 0-11.5-6.3-20.9-14-20.9z"/><path class="t" d="m844.1 501.6c0 11.6-6.3 21-14 21-7.7 0-13.9-9.4-13.9-21 0-11.5 6.2-20.9 13.9-20.9 7.7 0 14 9.4 14 20.9z"/><path class="f" d="m736.7 535c0 0 22.1-3.3 31.7-11.4 9.7-8.2 23-31.2 34.9-35.6 11.9-4.5 42.3-17.1 43-11.2 0.8 6-25.2 17.8-25.2 17.8 0 0 32.7-10.4 31.2-2.9-1.5 7.4-30.4 14.8-30.4 14.8 0 0 33.4 0.8 26.7 5.9-6.7 5.2-26 3.8-26 3.8 0 0 24.5 5.9 18.6 8.9-6 2.9-20.1 0.7-20.1 0.7 0 0-20 23-43 22.3l-30.5 16.3z"/><path class="j" d="m408.6 462.5c-5.5 10.4-5.3 22.8-0.1 33.3 17.8 36.6 99.7 134.6 147.6 138.7 41.4 3.7 202.8-55.8 202.8-55.8 0 0 4.4-41.2-17.6-47l-174.9 35.2c0 0-80.1-100.7-96.8-117.4-13.6-13.5-48.2-11.3-61 13z"/><path class="g" d="m736.7 566.4c-14.8 8-167.2 40.1-180.3 53.1-7.1 7.2-4.7 12-1.1 14.9q0.4 0.1 0.8 0.1c41.4 3.7 202.8-55.8 202.8-55.8 0 0 2.8-26.3-7.3-39.9-1.1 7.8-4.4 22-14.9 27.6z"/><path class="t" d="m231.5 677.7h-7.7v-18.2c0-4.9-4-8.9-8.9-8.9h-48c-4.9 0-8.9 4-8.9 8.9v18.2h-7.8v-18.2c0-9.1 7.5-16.6 16.7-16.6h48c9.1 0 16.6 7.5 16.6 16.6z"/><path class="j" d="m250.3 795.4h-167.3v-122.1h167.3z"/><path class="t" d="m250.3 795.4h49.1v-122.1h-49.1z"/><path class="u" d="m207.2 734.3c0 22.4-18.2 40.6-40.6 40.6-22.3 0-40.5-18.2-40.5-40.6 0-22.3 18.2-40.5 40.5-40.5 22.4 0 40.6 18.2 40.6 40.5z"/><path class="j" d="m180.1 761.7h-26v-54.7h26z"/><path class="j" d="m139.8 747.4v-26.1h54.7v26.1z"/><path class="t" d="m363.8 795.4h-51.8v-155.8c0-14.3 11.6-25.8 25.9-25.8 14.3 0 25.9 11.5 25.9 25.8z"/><path class="s" d="m373.3 795.4h-51.8v-155.8c0-14.3 11.6-25.8 25.9-25.8 14.3 0 25.9 11.5 25.9 25.8z"/><path class="j" d="m358 795.4h-20.1v-166.6h20.1z"/><path class="h" d="m342.8 795.4h-1.1v-163.2h1.1z"/><path class="h" d="m353.2 636.8h-8.3v-1.1h8.3z"/><path class="h" d="m349.9 639.8h-5v-1.1h5z"/><path class="h" d="m349.9 642.8h-5v-1.1h5z"/><path class="h" d="m349.9 645.8h-5v-1.1h5z"/><path class="h" d="m349.9 648.8h-5v-1.1h5z"/><path class="h" d="m353.2 651.8h-8.3v-1.1h8.3z"/><path class="h" d="m349.9 654.8h-5v-1.1h5z"/><path class="h" d="m349.9 657.8h-5v-1.1h5z"/><path class="h" d="m349.9 660.8h-5v-1.1h5z"/><path class="h" d="m349.9 663.8h-5v-1.1h5z"/><path class="h" d="m353.2 666.8h-8.3v-1h8.3z"/><path class="h" d="m349.9 669.8h-5v-1.1h5z"/><path class="h" d="m349.9 672.8h-5v-1.1h5z"/><path class="h" d="m349.9 675.8h-5v-1.1h5z"/><path class="h" d="m349.9 678.8h-5v-1.1h5z"/><path class="h" d="m353.2 681.9h-8.3v-1.1h8.3z"/><path class="h" d="m349.9 684.8h-5v-1.1h5z"/><path class="h" d="m349.9 687.8h-5v-1.1h5z"/><path class="h" d="m349.9 690.8h-5v-1.1h5z"/><path class="h" d="m349.9 693.8h-5v-1.1h5z"/><path class="h" d="m353.2 696.9h-8.3v-1.1h8.3z"/><path class="h" d="m349.9 699.8h-5v-1h5z"/><path class="h" d="m349.9 702.8h-5v-1.1h5z"/><path class="h" d="m349.9 705.8h-5v-1.1h5z"/><path class="h" d="m349.9 708.8h-5v-1.1h5z"/><path class="h" d="m353.2 711.9h-8.3v-1.1h8.3z"/><path class="h" d="m349.9 714.9h-5v-1.1h5z"/><path class="h" d="m349.9 717.8h-5v-1h5z"/><path class="h" d="m349.9 720.8h-5v-1.1h5z"/><path class="h" d="m349.9 723.8h-5v-1.1h5z"/><path class="h" d="m353.2 726.9h-8.3v-1.1h8.3z"/><path class="h" d="m349.9 729.9h-5v-1.1h5z"/><path class="h" d="m349.9 732.9h-5v-1.1h5z"/><path class="h" d="m349.9 735.8h-5v-1.1h5z"/><path class="h" d="m349.9 738.8h-5v-1.1h5z"/><path class="h" d="m353.2 741.9h-8.3v-1.1h8.3z"/><path class="h" d="m349.9 744.9h-5v-1.1h5z"/><path class="h" d="m349.9 747.9h-5v-1.1h5z"/><path class="h" d="m349.9 750.8h-5v-1h5z"/><path class="h" d="m349.9 753.8h-5v-1.1h5z"/><path class="h" d="m353.2 756.9h-8.3v-1.1h8.3z"/><path class="h" d="m349.9 759.9h-5v-1.1h5z"/><path class="h" d="m349.9 762.9h-5v-1.1h5z"/><path class="h" d="m349.9 765.9h-5v-1.1h5z"/><path class="h" d="m349.9 768.8h-5v-1.1h5z"/><path class="h" d="m353.2 771.9h-8.3v-1.1h8.3z"/><path class="h" d="m349.9 774.9h-5v-1.1h5z"/><path class="h" d="m349.9 777.9h-5v-1.1h5z"/><path class="h" d="m349.9 780.9h-5v-1.1h5z"/><path class="h" d="m349.9 783.9h-5v-1.1h5z"/><path class="d" d="m458.4 795.4h-146.4v-20.5h146.4z"/><path class="e" d="m429.3 795.4h-117.3v-20.5h117.3z"/><path class="r" d="m1272.9 795.4h-1235.7c-9.1 0-16.5 7.3-16.5 16.4 0 9.1 7.4 16.5 16.5 16.5h1235.7c9.1 0 16.5-7.4 16.5-16.5 0-9.1-7.4-16.4-16.5-16.4z"/><path class="v" d="m361.1 429.8h-172.5v-235.9h172.5z"/><path class="j" d="m350.9 415.8h-152.1v-208h152.1z"/><path class="m" d="m300.2 198.5c-3.7-0.5-6-4.2-4.9-7.7 1.3-3.9-1.6-7.9-5.7-7.9h-14.8-14.7c-4.1 0-7 4-5.7 7.9 1.1 3.5-1.2 7.2-4.9 7.7l-11.4 1.7v11.8h36.7 36.8v-11.8z"/><path class="u" d="m252 267.8h-35.9v-35.9h35.9z"/><path class="j" d="m219.2 243.1h4.7l10.1 11.5 16.1-20-16.1 24.5z"/><path class="w" d="m333.6 238h-75.4v-1.3h75.4z"/><path class="w" d="m258.2 250.5v-1.3h75.4v1.3"/><path class="w" d="m333.6 263h-75.4v-1.3h75.4z"/><path class="u" d="m252 312.1h-35.9v-35.9h35.9z"/><path class="j" d="m219.2 287.3h4.7l10.1 11.6 16.1-20.1-16.1 24.6z"/><path class="w" d="m333.6 282.3h-75.4v-1.3h75.4z"/><path class="w" d="m333.6 293.5v1.3h-75.4v-1.3"/><path class="w" d="m333.6 307.3h-75.4v-1.3h75.4z"/><path class="u" d="m252 356.3h-35.9v-35.8h35.9z"/><path class="j" d="m219.2 331.6h4.7l10.1 11.6 16.1-20.1-16.1 24.5z"/><path class="w" d="m333.6 326.5h-75.4v-1.3h75.4z"/><path class="w" d="m333.6 337.7v1.3h-75.4v-1.3"/><path class="w" d="m333.6 351.5h-75.4v-1.3h75.4z"/><path class="u" d="m252 400.6h-35.9v-35.9h35.9z"/><path class="j" d="m219.2 375.8h4.7l10.1 11.6 16.1-20.1-16.1 24.6z"/><path class="w" d="m333.6 370.8h-75.4v-1.3h75.4z"/><path class="w" d="m333.6 382v1.3h-75.4v-1.3"/><path class="w" d="m333.6 395.8h-75.4v-1.3h75.4z"/><path class="m" d="m1101.6 153.2c-9.2-18.8-33.4-24.4-49.9-11.5l-3.7 2.8-3.7-2.8c-16.6-12.9-40.7-7.3-50 11.5-5.6 11.5-4.1 25.2 3.8 35.2l49.9 43.2 49.8-43.2c8-10 9.5-23.7 3.8-35.2z"/><path class="j" d="m1065.6 209.4c-0.8 0-1.4-0.5-1.6-1.2l-12.6-50.4-15.5 42.7c-0.3 0.6-1 1.1-1.7 1-0.7 0-1.3-0.6-1.4-1.3l-6.4-33.3-6.9 16.9c-0.3 0.6-0.8 1-1.5 1h-50c-0.9 0-1.6-0.7-1.6-1.6 0-0.9 0.7-1.6 1.6-1.6h48.9l8.6-20.9c0.2-0.7 0.9-1.1 1.6-1 0.7 0.1 1.3 0.6 1.4 1.3l6.3 33 15.3-42.2c0.3-0.6 0.9-1.1 1.6-1 0.7 0 1.3 0.5 1.5 1.2l12.4 49.3 9.3-36.9c0.2-0.7 0.8-1.2 1.6-1.2q0 0 0 0c0.7 0 1.3 0.4 1.5 1.1l4.6 17.3h45.4c0.9 0 1.6 0.7 1.6 1.6 0 0.9-0.7 1.6-1.6 1.6h-46.6c-0.7 0-1.3-0.5-1.5-1.2l-3.4-12.5-9.4 37.1c-0.2 0.7-0.8 1.2-1.5 1.2z"/><path class="u" d="m1164.7 358.7c0 29.1-23.6 52.7-52.7 52.7-29.1 0-52.7-23.6-52.7-52.7 0-29.1 23.6-52.6 52.7-52.6 29.1 0 52.7 23.5 52.7 52.6z"/><path class="j" d="m1129.6 394.3h-33.9v-71.1h33.9z"/><path class="j" d="m1077.1 375.7v-33.9h71.1v33.9z"/><path class="u" d="m487.1 114.6c0 34-27.5 61.6-61.6 61.6-34 0-61.5-27.6-61.5-61.6 0-34 27.5-61.6 61.5-61.6 34.1 0 61.6 27.6 61.6 61.6z"/><path class="m" d="m411.9 64.9c-9.5 0-17.2 7.6-17.2 17.1v24.5h34.3v-24.5c0-9.5-7.7-17.1-17.1-17.1z"/><path class="j" d="m411.9 148.2c-9.5 0-17.2-7.7-17.2-17.2v-24.5h34.3v24.5c0 9.5-7.7 17.2-17.1 17.2z"/><path class="m" d="m463.5 101.5c-6.5-6.9-17.4-7.1-24.2-0.6l-17.7 17 23.7 24.8 17.7-17c6.9-6.6 7.1-17.4 0.5-24.2z"/><path class="j" d="m403.4 159.1c-6.6-6.8-6.3-17.7 0.5-24.2l17.7-17 23.7 24.8-17.7 16.9c-6.8 6.6-17.7 6.3-24.2-0.5z"/><path class="v" d="m794.5 266.8c0 33.1-26.8 59.9-59.9 59.9-33.1 0-60-26.8-60-59.9 0-33.1 26.9-60 60-60 33.1 0 59.9 26.9 59.9 60z"/><path class="u" d="m761.6 240.5l-0.8-0.8 42.3-42.2 0.8 0.8z"/><path class="j" d="m693.3 336.1l-28-28 7.1-7.1 28 28z"/><path class="t" d="m690.5 319l-8.2-8.1 79.4-79.4 8.2 8.1z"/><path class="j" d="m714.4 304.3l-17.3-17.3 53.4-53.5 17.3 17.3z"/><path class="t" d="m714.4 304.3l-17.3-17.3 2.4-2.5 17.3 17.3z"/><path class="j" d="m712.6 316.7l-28-28 7.1-7.1 28 28z"/><path class="h" d="m755.8 246.9l-6.7-6.7 0.9-0.9 6.7 6.7z"/><path class="h" d="m750.8 246.7l-4.1-4.1 0.9-0.9 4 4.1z"/><path class="h" d="m748.4 249.1l-4.1-4.1 0.9-0.9 4 4.1z"/><path class="h" d="m746 251.5l-4.1-4.1 0.9-0.9 4 4.1z"/><path class="h" d="m743.6 253.9l-4.1-4.1 0.9-0.9 4 4.1z"/><path class="h" d="m743.8 259l-6.7-6.7 0.8-0.9 6.7 6.7z"/><path class="h" d="m738.7 258.7l-4-4 0.8-0.9 4.1 4z"/><path class="h" d="m736.3 261.1l-4-4 0.8-0.9 4.1 4z"/><path class="h" d="m733.9 263.5l-4-4 0.8-0.9 4.1 4z"/><path class="h" d="m731.5 265.9l-4-4 0.8-0.9 4.1 4z"/><path class="h" d="m731.7 271.1l-6.7-6.7 0.9-0.9 6.7 6.7z"/><path class="h" d="m726.6 270.8l-4-4.1 0.9-0.8 4 4z"/><path class="h" d="m724.2 273.2l-4-4.1 0.9-0.8 4 4z"/><path class="h" d="m721.8 275.6l-4-4.1 0.9-0.8 4 4z"/><path class="h" d="m719.4 278l-4-4.1 0.9-0.8 4 4z"/><path class="h" d="m719.6 283.1l-6.7-6.7 0.9-0.9 6.7 6.7z"/><path class="h" d="m714.6 282.9l-4.1-4.1 0.9-0.9 4.1 4.1z"/><path class="h" d="m712.2 285.3l-4.1-4.1 0.9-0.9 4.1 4.1z"/><path class="h" d="m709.8 287.7l-4.1-4.1 0.9-0.9 4.1 4.1z"/><path class="h" d="m707.4 290.1l-4.1-4.1 0.9-0.9 4.1 4.1z"/></svg>